<svg id="visual" viewBox="0 0 1920 1080" width="1920" height="1080" xmlns="http://www.w3.org/2000/svg" xmlns:xlink="http://www.w3.org/1999/xlink" version="1.1"><g stroke-width="1" stroke-linejoin="bevel"><path d="M1058.7 552L1090.7 707L1303 572Z" fill="#277297" stroke="#277297"></path><path d="M1090.7 707L1291 754L1303 572Z" fill="#081a28" stroke="#081a28"></path><path d="M1250 344L1087.7 361L1058.7 552Z" fill="#0c2435" stroke="#0c2435"></path><path d="M1303 572L1250 344L1058.7 552Z" fill="#205a7a" stroke="#205a7a"></path><path d="M843.3 695L1030.7 874L1090.7 707Z" fill="#277297" stroke="#277297"></path><path d="M1090.7 707L1030.7 874L1291 754Z" fill="#00101c" stroke="#00101c"></path><path d="M1030.7 874L1299 902L1291 754Z" fill="#277297" stroke="#277297"></path><path d="M1496.3 727L1496.3 575L1303 572Z" fill="#00101c" stroke="#00101c"></path><path d="M1496.3 727L1303 572L1291 754Z" fill="#205a7a" stroke="#205a7a"></path><path d="M1303 572L1511.3 378L1250 344Z" fill="#246688" stroke="#246688"></path><path d="M1087.7 361L860.3 503L1058.7 552Z" fill="#15384f" stroke="#15384f"></path><path d="M1058.7 552L843.3 695L1090.7 707Z" fill="#081a28" stroke="#081a28"></path><path d="M1517.3 877L1496.3 727L1291 754Z" fill="#19435d" stroke="#19435d"></path><path d="M860.3 503L843.3 695L1058.7 552Z" fill="#15384f" stroke="#15384f"></path><path d="M1728.7 509L1511.3 378L1496.3 575Z" fill="#081a28" stroke="#081a28"></path><path d="M1496.3 575L1511.3 378L1303 572Z" fill="#081a28" stroke="#081a28"></path><path d="M1250 344L1081.7 203L1087.7 361Z" fill="#112e42" stroke="#112e42"></path><path d="M1087.7 361L846.3 351L860.3 503Z" fill="#1d4e6b" stroke="#1d4e6b"></path><path d="M1289 170L1081.7 203L1250 344Z" fill="#0c2435" stroke="#0c2435"></path><path d="M1081.7 203L846.3 351L1087.7 361Z" fill="#15384f" stroke="#15384f"></path><path d="M860.3 503L623 551L843.3 695Z" fill="#246688" stroke="#246688"></path><path d="M1299 902L1517.3 877L1291 754Z" fill="#081a28" stroke="#081a28"></path><path d="M1496.3 727L1686.7 723L1496.3 575Z" fill="#277297" stroke="#277297"></path><path d="M1511.3 378L1289 170L1250 344Z" fill="#15384f" stroke="#15384f"></path><path d="M843.3 695L858.3 931L1030.7 874Z" fill="#112e42" stroke="#112e42"></path><path d="M1031.7 1080L1302 1080L1299 902Z" fill="#00101c" stroke="#00101c"></path><path d="M1031.7 1080L1299 902L1030.7 874Z" fill="#00101c" stroke="#00101c"></path><path d="M1299 902L1501.3 1080L1517.3 877Z" fill="#246688" stroke="#246688"></path><path d="M858.3 931L1031.7 1080L1030.7 874Z" fill="#112e42" stroke="#112e42"></path><path d="M1703.7 921L1686.7 723L1517.3 877Z" fill="#277297" stroke="#277297"></path><path d="M1517.3 877L1686.7 723L1496.3 727Z" fill="#246688" stroke="#246688"></path><path d="M612 356L623 551L860.3 503Z" fill="#112e42" stroke="#112e42"></path><path d="M843.3 695L634 737L858.3 931Z" fill="#15384f" stroke="#15384f"></path><path d="M623 551L634 737L843.3 695Z" fill="#15384f" stroke="#15384f"></path><path d="M1686.7 723L1728.7 509L1496.3 575Z" fill="#277297" stroke="#277297"></path><path d="M1511.3 378L1529.3 160L1289 170Z" fill="#15384f" stroke="#15384f"></path><path d="M635 1080L865.3 1080L858.3 931Z" fill="#0c2435" stroke="#0c2435"></path><path d="M858.3 931L865.3 1080L1031.7 1080Z" fill="#0c2435" stroke="#0c2435"></path><path d="M1675.7 169L1529.3 160L1511.3 378Z" fill="#081a28" stroke="#081a28"></path><path d="M1302 1080L1501.3 1080L1299 902Z" fill="#00101c" stroke="#00101c"></path><path d="M1061.7 0L833.3 148L1081.7 203Z" fill="#15384f" stroke="#15384f"></path><path d="M1081.7 203L833.3 148L846.3 351Z" fill="#19435d" stroke="#19435d"></path><path d="M846.3 351L612 356L860.3 503Z" fill="#277297" stroke="#277297"></path><path d="M1275 0L1081.7 203L1289 170Z" fill="#297ea6" stroke="#297ea6"></path><path d="M1728.7 509L1731.7 362L1511.3 378Z" fill="#277297" stroke="#277297"></path><path d="M1501.3 1080L1703.7 921L1517.3 877Z" fill="#081a28" stroke="#081a28"></path><path d="M1686.7 723L1920 526L1728.7 509Z" fill="#00101c" stroke="#00101c"></path><path d="M1512.3 0L1275 0L1289 170Z" fill="#246688" stroke="#246688"></path><path d="M668 210L612 356L846.3 351Z" fill="#1d4e6b" stroke="#1d4e6b"></path><path d="M1275 0L1061.7 0L1081.7 203Z" fill="#0c2435" stroke="#0c2435"></path><path d="M415.7 750L615 880L634 737Z" fill="#1d4e6b" stroke="#1d4e6b"></path><path d="M634 737L615 880L858.3 931Z" fill="#19435d" stroke="#19435d"></path><path d="M415.7 750L634 737L623 551Z" fill="#19435d" stroke="#19435d"></path><path d="M833.3 148L668 210L846.3 351Z" fill="#246688" stroke="#246688"></path><path d="M619 0L668 210L833.3 148Z" fill="#19435d" stroke="#19435d"></path><path d="M1731.7 362L1675.7 169L1511.3 378Z" fill="#1d4e6b" stroke="#1d4e6b"></path><path d="M1529.3 160L1512.3 0L1289 170Z" fill="#112e42" stroke="#112e42"></path><path d="M1061.7 0L850.3 0L833.3 148Z" fill="#205a7a" stroke="#205a7a"></path><path d="M1501.3 1080L1682.7 1080L1703.7 921Z" fill="#081a28" stroke="#081a28"></path><path d="M1686.7 0L1512.3 0L1529.3 160Z" fill="#297ea6" stroke="#297ea6"></path><path d="M615 880L635 1080L858.3 931Z" fill="#1d4e6b" stroke="#1d4e6b"></path><path d="M1920 750L1920 526L1686.7 723Z" fill="#00101c" stroke="#00101c"></path><path d="M1728.7 509L1920 370L1731.7 362Z" fill="#297ea6" stroke="#297ea6"></path><path d="M1731.7 362L1920 176L1675.7 169Z" fill="#0c2435" stroke="#0c2435"></path><path d="M1920 750L1686.7 723L1703.7 921Z" fill="#081a28" stroke="#081a28"></path><path d="M1920 912L1920 750L1703.7 921Z" fill="#246688" stroke="#246688"></path><path d="M411.7 162L612 356L668 210Z" fill="#19435d" stroke="#19435d"></path><path d="M411.7 162L436.7 387L612 356Z" fill="#15384f" stroke="#15384f"></path><path d="M612 356L436.7 387L623 551Z" fill="#00101c" stroke="#00101c"></path><path d="M615 880L459.7 1080L635 1080Z" fill="#0c2435" stroke="#0c2435"></path><path d="M400.7 563L415.7 750L623 551Z" fill="#00101c" stroke="#00101c"></path><path d="M436.7 387L400.7 563L623 551Z" fill="#0c2435" stroke="#0c2435"></path><path d="M1920 526L1920 370L1728.7 509Z" fill="#081a28" stroke="#081a28"></path><path d="M1675.7 169L1686.7 0L1529.3 160Z" fill="#1d4e6b" stroke="#1d4e6b"></path><path d="M1920 176L1686.7 0L1675.7 169Z" fill="#0c2435" stroke="#0c2435"></path><path d="M415.7 750L427.7 885L615 880Z" fill="#112e42" stroke="#112e42"></path><path d="M1920 1080L1920 912L1703.7 921Z" fill="#081a28" stroke="#081a28"></path><path d="M850.3 0L619 0L833.3 148Z" fill="#112e42" stroke="#112e42"></path><path d="M427.7 885L459.7 1080L615 880Z" fill="#277297" stroke="#277297"></path><path d="M1920 370L1920 176L1731.7 362Z" fill="#00101c" stroke="#00101c"></path><path d="M1682.7 1080L1920 1080L1703.7 921Z" fill="#297ea6" stroke="#297ea6"></path><path d="M619 0L411.7 162L668 210Z" fill="#246688" stroke="#246688"></path><path d="M436.7 387L213.3 523L400.7 563Z" fill="#246688" stroke="#246688"></path><path d="M1920 176L1920 0L1686.7 0Z" fill="#19435d" stroke="#19435d"></path><path d="M619 0L430.7 0L411.7 162Z" fill="#19435d" stroke="#19435d"></path><path d="M191.3 387L436.7 387L227.3 177Z" fill="#15384f" stroke="#15384f"></path><path d="M191.3 387L213.3 523L436.7 387Z" fill="#112e42" stroke="#112e42"></path><path d="M400.7 563L179.3 703L415.7 750Z" fill="#00101c" stroke="#00101c"></path><path d="M415.7 750L245.3 872L427.7 885Z" fill="#277297" stroke="#277297"></path><path d="M427.7 885L220.3 1080L459.7 1080Z" fill="#15384f" stroke="#15384f"></path><path d="M179.3 703L245.3 872L415.7 750Z" fill="#00101c" stroke="#00101c"></path><path d="M213.3 523L179.3 703L400.7 563Z" fill="#246688" stroke="#246688"></path><path d="M227.3 177L436.7 387L411.7 162Z" fill="#15384f" stroke="#15384f"></path><path d="M213.3 523L0 559L179.3 703Z" fill="#19435d" stroke="#19435d"></path><path d="M248.3 0L227.3 177L411.7 162Z" fill="#1d4e6b" stroke="#1d4e6b"></path><path d="M0 909L220.3 1080L245.3 872Z" fill="#15384f" stroke="#15384f"></path><path d="M245.3 872L220.3 1080L427.7 885Z" fill="#205a7a" stroke="#205a7a"></path><path d="M430.7 0L248.3 0L411.7 162Z" fill="#19435d" stroke="#19435d"></path><path d="M0 338L0 559L191.3 387Z" fill="#277297" stroke="#277297"></path><path d="M0 338L191.3 387L227.3 177Z" fill="#246688" stroke="#246688"></path><path d="M191.3 387L0 559L213.3 523Z" fill="#081a28" stroke="#081a28"></path><path d="M179.3 703L0 909L245.3 872Z" fill="#081a28" stroke="#081a28"></path><path d="M0 559L0 707L179.3 703Z" fill="#15384f" stroke="#15384f"></path><path d="M0 184L0 338L227.3 177Z" fill="#19435d" stroke="#19435d"></path><path d="M0 707L0 909L179.3 703Z" fill="#205a7a" stroke="#205a7a"></path><path d="M0 0L0 184L227.3 177Z" fill="#0c2435" stroke="#0c2435"></path><path d="M0 909L0 1080L220.3 1080Z" fill="#15384f" stroke="#15384f"></path><path d="M248.3 0L0 0L227.3 177Z" fill="#246688" stroke="#246688"></path></g></svg>