<svg id="visual" viewBox="0 0 1920 1080" width="1920" height="1080" xmlns="http://www.w3.org/2000/svg" xmlns:xlink="http://www.w3.org/1999/xlink" version="1.1"><path d="M0 847L45.7 825.3C91.3 803.7 182.7 760.3 274.2 741.7C365.7 723 457.3 729 548.8 744C640.3 759 731.7 783 823 777.5C914.3 772 1005.7 737 1097 718.7C1188.3 700.3 1279.7 698.7 1371.2 707.8C1462.7 717 1554.3 737 1645.8 737.5C1737.3 738 1828.7 719 1874.3 709.5L1920 700L1920 1081L1874.3 1081C1828.7 1081 1737.3 1081 1645.8 1081C1554.3 1081 1462.7 1081 1371.2 1081C1279.7 1081 1188.3 1081 1097 1081C1005.7 1081 914.3 1081 823 1081C731.7 1081 640.3 1081 548.8 1081C457.3 1081 365.7 1081 274.2 1081C182.7 1081 91.3 1081 45.7 1081L0 1081Z" fill="#F7CACA" stroke-linecap="round" stroke-linejoin="miter"></path></svg>