<svg id="visual" viewBox="0 0 900 600" width="900" height="600" xmlns="http://www.w3.org/2000/svg" xmlns:xlink="http://www.w3.org/1999/xlink" version="1.1"><path d="M0 457L21.5 453.5C43 450 86 443 128.8 444.2C171.7 445.3 214.3 454.7 257.2 469.2C300 483.7 343 503.3 385.8 503.2C428.7 503 471.3 483 514.2 476C557 469 600 475 642.8 478.2C685.7 481.3 728.3 481.7 771.2 471.7C814 461.7 857 441.3 878.5 431.2L900 421L900 601L878.5 601C857 601 814 601 771.2 601C728.3 601 685.7 601 642.8 601C600 601 557 601 514.2 601C471.3 601 428.7 601 385.8 601C343 601 300 601 257.2 601C214.3 601 171.7 601 128.8 601C86 601 43 601 21.5 601L0 601Z" fill="#0066FF" stroke-linecap="round" stroke-linejoin="miter"></path></svg>